<?xml version="1.0" encoding="UTF-8" standalone="no"?>
<!-- Created with Inkscape (http://www.inkscape.org/) -->

<svg
   xmlns:dc="http://purl.org/dc/elements/1.1/"
   xmlns:cc="http://creativecommons.org/ns#"
   xmlns:rdf="http://www.w3.org/1999/02/22-rdf-syntax-ns#"
   xmlns:svg="http://www.w3.org/2000/svg"
   xmlns="http://www.w3.org/2000/svg"
   xmlns:sodipodi="http://sodipodi.sourceforge.net/DTD/sodipodi-0.dtd"
   xmlns:inkscape="http://www.inkscape.org/namespaces/inkscape"
   id="svg3039"
   version="1.1"
   inkscape:version="0.48.5 r10040"
   width="322"
   height="200"
   sodipodi:docname="statevariablepcb.gif.svg">
  <metadata
     id="metadata3045">
    <rdf:RDF>
      <cc:Work
         rdf:about="">
        <dc:format>image/svg+xml</dc:format>
        <dc:type
           rdf:resource="http://purl.org/dc/dcmitype/StillImage" />
      </cc:Work>
    </rdf:RDF>
  </metadata>
  <defs
     id="defs3043" />
  <sodipodi:namedview
     pagecolor="#ffffff"
     bordercolor="#666666"
     borderopacity="1"
     objecttolerance="10"
     gridtolerance="10"
     guidetolerance="10"
     inkscape:pageopacity="0"
     inkscape:pageshadow="2"
     inkscape:window-width="1579"
     inkscape:window-height="1030"
     id="namedview3041"
     showgrid="false"
     inkscape:zoom="2.5473412"
     inkscape:cx="153.9722"
     inkscape:cy="47.048236"
     inkscape:window-x="0"
     inkscape:window-y="0"
     inkscape:window-maximized="0"
     inkscape:current-layer="svg3039" />
  <path
     style="fill:#000000"
     d="m 14.053385,187.36456 0,-93.000001 21,0 21,0 0,10.877551 0,10.87756 1.5,1.24489 1.5,1.24489 0,1.72257 0,1.72256 -1.828741,1.65499 -1.82874,1.65499 -1.516272,0 -1.516272,0 -1.654987,-1.82874 -1.654988,-1.82874 0,-1.54882 0,-1.54881 1.5,-1.24489 1.5,-1.24489 0,-8.87756 0,-8.877551 -17,0 -17,0 0,89.000001 0,88.99999 129.000005,0 129,0 0,-36 0,-36 -26.93309,0 -26.9331,0 0.1831,7.75 0.18309,7.75 -2.5,0 -2.5,0 0.18309,-7.75 0.1831,-7.75 -52.86619,0 -52.86619,0 0.1831,7.71788 0.18309,7.71789 -1.85622,0.37589 -1.85622,0.3759 -1.00682,-1.00682 -1.00683,-1.00683 0.71921,-9.08695 0.7192,-9.08696 87.73885,0 87.73885,0 1.80998,-2 1.80998,-2 2.69002,0 2.69002,0 1.80998,2 1.80998,2 1.69002,0 1.69002,0 1.80998,-2 1.80998,-2 2.69002,0 2.69002,0 1.65499,1.82874 1.65499,1.82874 0,2.51627 0,2.51627 -1.82874,1.65499 -1.82874,1.65499 -2.51627,0 -2.51627,0 -1.80998,-2 -1.80998,-2 -1.69002,0 -1.69002,0 -1.80998,2 -1.80998,2 -2.69002,0 -2.69002,0 -1.80998,-2 -1.80998,-2 -1.84501,0 -1.84501,0 0,38 0,38 -133,0 -133.000005,0 0,-92.99999 z m 97.553855,27.91286 0.67189,-1.08713 -1.11287,-1.11287 -1.11287,-1.11287 -1.11287,1.11287 -1.11287,1.11287 0.67189,1.08713 c 0.36954,0.59792 1.06877,1.08713 1.55385,1.08713 0.48508,0 1.18431,-0.48921 1.55385,-1.08713 z m 110,0 0.67189,-1.08713 -1.11287,-1.11287 -1.11287,-1.11287 -1.11287,1.11287 -1.11287,1.11287 0.67189,1.08713 c 0.36954,0.59792 1.06877,1.08713 1.55385,1.08713 0.48508,0 1.18431,-0.48921 1.55385,-1.08713 z m 70,-12 0.67189,-1.08713 -1.11287,-1.11287 -1.11287,-1.11287 -1.11287,1.11287 -1.11287,1.11287 0.67189,1.08713 c 0.36954,0.59792 1.06877,1.08713 1.55385,1.08713 0.48508,0 1.18431,-0.48921 1.55385,-1.08713 z m 16,0 0.67189,-1.08713 -1.11287,-1.11287 -1.11287,-1.11287 -1.11287,1.11287 -1.11287,1.11287 0.67189,1.08713 c 0.36954,0.59792 1.06877,1.08713 1.55385,1.08713 0.48508,0 1.18431,-0.48921 1.55385,-1.08713 z m -252.000004,-81.99999 0.671884,-1.08714 -1.112867,-1.11286 -1.112868,-1.11287 -1.112868,1.11287 -1.112867,1.11286 0.671884,1.08714 c 0.369537,0.59792 1.06877,1.08713 1.553851,1.08713 0.485081,0 1.184314,-0.48921 1.553851,-1.08713 z m 61.696154,151.33723 -69.250005,-0.2638 0,-11.83817 0,-11.83816 -2,-1.80998 -2,-1.80998 0,-2.69002 0,-2.69002 1.828741,-1.65499 1.82874,-1.65499 2.516272,0 2.516272,0 1.809975,2 1.809975,2 5.845013,0 5.845012,0 0,-6 0,-6 5.047661,0 5.047661,0 -0.297661,-9.71854 -0.297661,-9.71853 1.85622,-0.37525 1.85622,-0.37524 0.956205,0.95621 0.956206,0.9562 -0.704752,11.13758 -0.704752,11.13757 -4.857674,0 -4.857673,0 0,6 0,6 -7.825686,0 -7.825686,0 -2.174314,2.31445 -2.174314,2.31445 0,9.68555 0,9.68555 65.106085,0 65.10608,0 1.9665,-2.5 1.9665,-2.5 1.77243,0 1.77243,0 1.65499,1.82874 1.65499,1.82874 0,1.51627 0,1.51627 -1.82874,1.65499 -1.82874,1.65499 -1.42126,-0.24304 c -0.78169,-0.13368 -32.58376,-0.36176 -70.67126,-0.50685 z m 72.30385,-3.33724 0.67189,-1.08713 -1.11287,-1.11287 -1.11287,-1.11287 -1.11287,1.11287 -1.11287,1.11287 0.67189,1.08713 c 0.36954,0.59792 1.06877,1.08713 1.55385,1.08713 0.48508,0 1.18431,-0.48921 1.55385,-1.08713 z m -138.000004,-26 0.671884,-1.08713 -1.112867,-1.11287 -1.112868,-1.11287 -1.112868,1.11287 -1.112867,1.11287 0.671884,1.08713 c 0.369537,0.59792 1.06877,1.08713 1.553851,1.08713 0.485081,0 1.184314,-0.48921 1.553851,-1.08713 z m 30,-28 0.671884,-1.08713 -1.112867,-1.11287 -1.112868,-1.11287 -1.112868,1.11287 -1.112867,1.11287 0.671884,1.08713 c 0.369537,0.59792 1.06877,1.08713 1.553851,1.08713 0.485081,0 1.184314,-0.48921 1.553851,-1.08713 z m 143.101144,56.25839 -1.65499,-1.82874 0,-1.51627 0,-1.51627 1.89962,-1.71914 1.89962,-1.71913 3.38179,0.63443 3.38178,0.63443 1.87359,-2.07029 1.87358,-2.07028 2.69002,0 2.69002,0 1.80998,2 1.80998,2 9.84501,0 9.84501,0 0,-18 0,-18 -8.89384,0 -8.89384,0 -0.70697,-8.93238 -0.70697,-8.93238 0.65983,-1.06762 0.65982,-1.06762 2.03461,0 2.0346,0 0.52301,2 0.52301,2 2.22838,0 2.22838,0 1.80998,-2 1.80998,-2 2.69002,0 2.69002,0 1.65499,1.82874 1.65499,1.82874 0,2.51627 0,2.51627 -1.82874,1.65499 -1.82874,1.65499 -2.51627,0 -2.51627,0 -1.80998,-2 -1.80998,-2 -2.22838,0 -2.22838,0 -0.60297,2.25 c -0.33164,1.2375 -0.60913,3.0375 -0.61664,4 l -0.0136,1.75 9,0 9,0 0,22 0,22 -11.84501,0 -11.84501,0 -1.80998,2 -1.80998,2 -2.69002,0 -2.69002,0 -1.78381,-1.97109 -1.78381,-1.97109 -1.94376,2.47109 -1.94376,2.47109 -1.77243,0 -1.77243,0 -1.65499,-1.82874 z m 4.89886,-2.25839 0.67189,-1.08713 -1.11287,-1.11287 -1.11287,-1.11287 -1.11287,1.11287 -1.11287,1.11287 0.67189,1.08713 c 0.36954,0.59792 1.06877,1.08713 1.55385,1.08713 0.48508,0 1.18431,-0.48921 1.55385,-1.08713 z m 12,-2 0.67189,-1.08713 -1.11287,-1.11287 -1.11287,-1.11287 -1.11287,1.11287 -1.11287,1.11287 0.67189,1.08713 c 0.36954,0.59792 1.06877,1.08713 1.55385,1.08713 0.48508,0 1.18431,-0.48921 1.55385,-1.08713 z m 10,-52 0.67189,-1.08713 -1.11287,-1.11287 -1.11287,-1.11287 -1.11287,1.11287 -1.11287,1.11287 0.67189,1.08713 c 0.36954,0.59792 1.06877,1.08713 1.55385,1.08713 0.48508,0 1.18431,-0.48921 1.55385,-1.08713 z m 14,0 0.67189,-1.08713 -1.11287,-1.11287 -1.11287,-1.11287 -1.11287,1.11287 -1.11287,1.11287 0.67189,1.08713 c 0.36954,0.59792 1.06877,1.08713 1.55385,1.08713 0.48508,0 1.18431,-0.48921 1.55385,-1.08713 z m -127.55385,40.08713 0,-11 -3.82569,0 -3.82568,0 -2.17432,2.31445 -2.17431,2.31445 0,4.68555 0,4.68555 -20.84502,0 -20.84501,0 -1.809975,2 -1.809975,2 -2.690025,0 -2.690025,0 -1.654987,-1.82874 -1.654988,-1.82874 0,-2.51627 0,-2.51627 1.828741,-1.65499 1.82874,-1.65499 2.516272,0 2.516272,0 1.809975,2 1.809975,2 1.845013,0 1.845012,0 0,-2.84501 0,-2.84501 -2,-1.80998 -2,-1.80998 0,-2.69002 0,-2.69002 1.868377,-1.69086 1.868377,-1.69086 -0.02246,-35.96413 -0.02246,-35.96412 -1.723474,0 -1.723474,0 -1.244889,1.5 -1.244889,1.5 -1.722568,0 -1.722568,0 -1.654987,-1.82874 -1.654988,-1.82874 0,-1.51627 0,-1.51628 1.828741,-1.65498 1.82874,-1.65499 1.548815,0 1.548815,0 1.244889,1.5 1.244889,1.5 3.877556,0 3.877555,0 0.157257,9.75 c 0.08649,5.3625 0.101602,22.40642 0.03358,37.87539 l -0.123678,28.1254 1.966421,1.77959 1.96642,1.77959 0,2.69002 0,2.69002 -2,1.80998 -2,1.80998 0,2.84501 0,2.84501 14.999998,0 15,0 0,-2.84501 0,-2.84501 -2,-1.80998 -2,-1.80998 0,-2.69002 0,-2.69002 1.82874,-1.65499 1.82874,-1.65499 2.51627,0 2.51627,0 1.80998,2 1.80998,2 5.84501,0 5.84501,0 0,11 0,11 14,0 14,0 0,-3 0,-3 22.97461,0 22.9746,0 0.2754,-15.75 0.27539,-15.75 5.68016,-0.29782 5.68016,-0.29782 -0.18016,-7.67006 -0.18016,-7.67007 1.85622,-0.37589 1.85622,-0.3759 1.00682,1.00682 1.00683,1.00683 -0.71921,9.08695 -0.7192,9.08696 -3.34839,0 -3.34838,0 -2.54546,2.54545 -2.54545,2.54546 0,13.45454 0,13.45455 -23,0 -23,0 0,3 0,3 -18,0 -18,0 0,-11 z m -58.446154,1.91287 0.671884,-1.08713 -1.112867,-1.11287 -1.112868,-1.11287 -1.112868,1.11287 -1.112867,1.11287 0.671884,1.08713 c 0.369537,0.59792 1.06877,1.08713 1.553851,1.08713 0.485081,0 1.184314,-0.48921 1.553851,-1.08713 z m 12,-14 0.671884,-1.08713 -1.112867,-1.11287 -1.112868,-1.11287 -1.112868,1.11287 -1.112867,1.11287 0.671884,1.08713 c 0.369537,0.59792 1.06877,1.08713 1.553851,1.08713 0.485081,0 1.184314,-0.48921 1.553851,-1.08713 z m 34.000004,0 0.67189,-1.08713 -1.11287,-1.11287 -1.11287,-1.11287 -1.11287,1.11287 -1.11287,1.11287 0.67189,1.08713 c 0.36954,0.59792 1.06877,1.08713 1.55385,1.08713 0.48508,0 1.18431,-0.48921 1.55385,-1.08713 z m 96,-14 0.67189,-1.08713 -1.11287,-1.11287 -1.11287,-1.11287 -1.11287,1.11287 -1.11287,1.11287 0.67189,1.08713 c 0.36954,0.59792 1.06877,1.08713 1.55385,1.08713 0.48508,0 1.18431,-0.48921 1.55385,-1.08713 z m -130.000004,-14 0.671884,-1.08713 -1.112867,-1.11287 -1.112868,-1.11287 -1.112868,1.11287 -1.112867,1.11287 0.671884,1.08713 c 0.369537,0.59792 1.06877,1.08713 1.553851,1.08713 0.485081,0 1.184314,-0.48921 1.553851,-1.08713 z m 140.000004,0 0.67189,-1.08713 -1.11287,-1.11287 -1.11287,-1.11287 -1.11287,1.11287 -1.11287,1.11287 0.67189,1.08713 c 0.36954,0.59792 1.06877,1.08713 1.55385,1.08713 0.48508,0 1.18431,-0.48921 1.55385,-1.08713 z m -140.000004,-29.99999 0.671884,-1.08714 -1.112867,-1.11286 -1.112868,-1.11287 -1.112868,1.11287 -1.112867,1.11286 0.671884,1.08714 c 0.369537,0.59792 1.06877,1.08713 1.553851,1.08713 0.485081,0 1.184314,-0.48921 1.553851,-1.08713 z m -10,-22 0.671884,-1.08714 -1.112867,-1.11286 -1.112868,-1.11287 -1.112868,1.11287 -1.112867,1.11286 0.671884,1.08714 c 0.369537,0.59792 1.06877,1.08713 1.553851,1.08713 0.485081,0 1.184314,-0.48921 1.553851,-1.08713 z m -57.898863,97.25838 -1.654988,-1.82874 0,-2.51627 0,-2.51627 1.828741,-1.65499 1.82874,-1.65499 2.47126,0 2.471259,0 1.2,1.2 1.2,1.2 1.2,-1.2 1.2,-1.2 2.645012,0 2.645013,0 1.654987,1.82874 1.654988,1.82874 0,2.51627 0,2.51627 -1.828741,1.65499 -1.82874,1.65499 -2.47126,0 -2.471259,0 -1.2,-1.2 -1.2,-1.2 -1.2,1.2 -1.2,1.2 -2.645012,0 -2.645013,0 -1.654987,-1.82874 z m 5.898863,-3.25839 0.671884,-1.08713 -1.112867,-1.11287 -1.112868,-1.11287 -1.112868,1.11287 -1.112867,1.11287 0.671884,1.08713 c 0.369537,0.59792 1.06877,1.08713 1.553851,1.08713 0.485081,0 1.184314,-0.48921 1.553851,-1.08713 z m 10,0 0.671884,-1.08713 -1.112867,-1.11287 -1.112868,-1.11287 -1.112868,1.11287 -1.112867,1.11287 0.671884,1.08713 c 0.369537,0.59792 1.06877,1.08713 1.553851,1.08713 0.485081,0 1.184314,-0.48921 1.553851,-1.08713 z m 212.101144,1.25839 -1.65499,-1.82874 0,-2.51627 0,-2.51627 2,-1.80998 2,-1.80998 0,-1.67069 0,-1.6707 -2.31445,-2.17432 -2.31445,-2.17431 -9.68555,0 -9.68555,0 0,1.87756 0,1.87755 1.5,1.24489 1.5,1.24489 0,1.72257 0,1.72256 -1.82874,1.65499 -1.82874,1.65499 -1.51627,0 -1.51627,0 -1.65499,-1.82874 -1.65499,-1.82874 0,-1.54882 0,-1.54881 1.5,-1.24489 1.5,-1.24489 0,-3.87755 0,-3.87756 6,0 6,0 0,-2.87756 0,-2.87755 -1.5,-1.24489 -1.5,-1.24489 0,-1.67755 0,-1.67756 1.25,-1.25136 1.25,-1.25136 0,-6.69864 0,-6.69864 2.5,0 2.5,0 0,6.69864 0,6.69864 1.25,1.25136 1.25,1.25136 0,1.67756 0,1.67755 -1.5,1.24489 -1.5,1.24489 0,2.87755 0,2.87756 3.84501,0 3.84501,0 1.80998,-2 1.80998,-2 2.69002,0 2.69002,0 1.65499,1.82874 1.65499,1.82874 0,2.51627 0,2.51627 -2,1.80998 -2,1.80998 0,1.69002 0,1.69002 2,1.80998 2,1.80998 0,2.69002 0,2.69002 -1.82874,1.65499 -1.82874,1.65499 -2.51627,0 -2.51627,0 -1.65499,-1.82874 z m 5.89886,-3.25839 0.67189,-1.08713 -1.11287,-1.11287 -1.11287,-1.11287 -1.11287,1.11287 -1.11287,1.11287 0.67189,1.08713 c 0.36954,0.59792 1.06877,1.08713 1.55385,1.08713 0.48508,0 1.18431,-0.48921 1.55385,-1.08713 z m -28,-6 0.67189,-1.08713 -1.11287,-1.11287 -1.11287,-1.11287 -1.11287,1.11287 -1.11287,1.11287 0.67189,1.08713 c 0.36954,0.59792 1.06877,1.08713 1.55385,1.08713 0.48508,0 1.18431,-0.48921 1.55385,-1.08713 z m 28,-10 0.67189,-1.08713 -1.11287,-1.11287 -1.11287,-1.11287 -1.11287,1.11287 -1.11287,1.11287 0.67189,1.08713 c 0.36954,0.59792 1.06877,1.08713 1.55385,1.08713 0.48508,0 1.18431,-0.48921 1.55385,-1.08713 z m -16,-12 0.67189,-1.08713 -1.11287,-1.11287 -1.11287,-1.11287 -1.11287,1.11287 -1.11287,1.11287 0.67189,1.08713 c 0.36954,0.59792 1.06877,1.08713 1.55385,1.08713 0.48508,0 1.18431,-0.48921 1.55385,-1.08713 z m 0,-12 0.67189,-1.08713 -1.11287,-1.11287 -1.11287,-1.11287 -1.11287,1.11287 -1.11287,1.11287 0.67189,1.08713 c 0.36954,0.59792 1.06877,1.08713 1.55385,1.08713 0.48508,0 1.18431,-0.48921 1.55385,-1.08713 z m 50.03297,43.18307 -1.58682,-1.75342 0,-2.51627 0,-2.51627 1.75,-1.56519 1.75,-1.56518 6.5,0 6.5,0 1.75,1.56518 1.75,1.56519 0,2.69002 0,2.69002 -1.75,1.55631 -1.75,1.5563 -6.66318,0.0234 -6.66317,0.0234 -1.58683,-1.75342 z m 5.96703,-3.18307 0.67189,-1.08713 -1.11287,-1.11287 -1.11287,-1.11287 -1.11287,1.11287 -1.11287,1.11287 0.67189,1.08713 c 0.36954,0.59792 1.06877,1.08713 1.55385,1.08713 0.48508,0 1.18431,-0.48921 1.55385,-1.08713 z m 8,0 0.67189,-1.08713 -1.11287,-1.11287 -1.11287,-1.11287 -1.11287,1.11287 -1.11287,1.11287 0.67189,1.08713 c 0.36954,0.59792 1.06877,1.08713 1.55385,1.08713 0.48508,0 1.18431,-0.48921 1.55385,-1.08713 z m -154.89886,2.25839 -1.65499,-1.82874 0,-1.51627 0,-1.51627 1.82874,-1.65499 c 2.10938,-1.90896 4.30263,-2.12362 5.85336,-0.57289 l 1.0821,1.0821 2.12136,-1.3248 2.12135,-1.32481 1.67972,1.05954 c 0.92384,0.58274 2.15748,1.81696 2.74142,2.7427 l 1.06172,1.68317 -1.06172,1.68317 c -0.58394,0.92574 -1.81758,2.15996 -2.74142,2.7427 l -1.67972,1.05954 -2.12135,-1.32481 -2.12136,-1.3248 -1.0821,1.0821 c -0.59515,0.59515 -1.82236,1.0821 -2.72711,1.0821 l -1.64501,0 -1.65499,-1.82874 z m 4.89886,-2.25839 0.67189,-1.08713 -1.11287,-1.11287 -1.11287,-1.11287 -1.11287,1.11287 -1.11287,1.11287 0.67189,1.08713 c 0.36954,0.59792 1.06877,1.08713 1.55385,1.08713 0.48508,0 1.18431,-0.48921 1.55385,-1.08713 z m 8,0 0.67189,-1.08713 -1.11287,-1.11287 -1.11287,-1.11287 -1.11287,1.11287 -1.11287,1.11287 0.67189,1.08713 c 0.36954,0.59792 1.06877,1.08713 1.55385,1.08713 0.48508,0 1.18431,-0.48921 1.55385,-1.08713 z m 9.10114,-3.74161 -1.65499,-1.82874 0,-1.51627 0,-1.51627 1.82874,-1.65499 1.82874,-1.65499 1.61224,0 c 0.88674,0 1.89036,0.45 2.23028,1 l 0.61803,1 2.45456,0 2.45455,0 1.98988,-1.24271 1.98989,-1.2427 1.67972,1.05954 c 0.92384,0.58274 2.15748,1.81696 2.74142,2.7427 l 1.06172,1.68317 -1.06172,1.68317 c -0.58394,0.92574 -1.81758,2.15996 -2.74142,2.7427 l -1.67972,1.05954 -1.98989,-1.2427 -1.98988,-1.24271 -2.45455,0 -2.45456,0 -0.61803,1 -0.61803,1 -1.786,0 -1.78599,0 -1.65499,-1.82874 z m 4.89886,-2.25839 0.67189,-1.08713 -1.11287,-1.11287 -1.11287,-1.11287 -1.11287,1.11287 -1.11287,1.11287 0.67189,1.08713 c 0.36954,0.59792 1.06877,1.08713 1.55385,1.08713 0.48508,0 1.18431,-0.48921 1.55385,-1.08713 z m 12,0 0.67189,-1.08713 -1.11287,-1.11287 -1.11287,-1.11287 -1.11287,1.11287 -1.11287,1.11287 0.67189,1.08713 c 0.36954,0.59792 1.06877,1.08713 1.55385,1.08713 0.48508,0 1.18431,-0.48921 1.55385,-1.08713 z m -87.89887,-2.74161 -1.65498,-1.82874 0,-2.51627 0,-2.51627 2,-1.80998 2,-1.80998 0,-2.84501 0,-2.84501 -2.87118,0 -2.871183,0 -0.7169,-10.11192 -0.7169,-10.11192 0.981859,-0.98186 0.981859,-0.98186 1.856225,0.37645 1.85622,0.37645 -0.25188,8.71733 -0.25188,8.71733 24.00188,0 24.00188,0 0,5 0,5 29.12223,0 29.12222,0 -0.37222,-13.75 -0.37223,-13.75 2.5,0 2.5,0 -0.0385,5.25 c -0.0212,2.8875 -0.13366,9.975 -0.25,15.75 l -0.2115,10.5 -33,0 -33,0 0,-5 0,-5 -19,0 -19,0 0,2.84501 0,2.84501 2,1.80998 2,1.80998 0,2.69002 0,2.69002 -1.82874,1.65499 -1.82874,1.65499 -2.51628,0 -2.51627,0 -1.65499,-1.82874 z m 5.89887,-3.25839 0.67189,-1.08713 -1.11287,-1.11287 -1.11287,-1.11287 -1.11287,1.11287 -1.11287,1.11287 0.67188,1.08713 c 0.36954,0.59792 1.06877,1.08713 1.55386,1.08713 0.48508,0 1.18431,-0.48921 1.55385,-1.08713 z m -6,-28 0.67188,-1.08713 -1.11287,-1.11287 -1.11286,-1.11287 -1.112873,1.11287 -1.112867,1.11287 0.671884,1.08713 c 0.369537,0.59792 1.06877,1.08713 1.553856,1.08713 0.48508,0 1.18431,-0.48921 1.55385,-1.08713 z m 110,0 0.67189,-1.08713 -1.11287,-1.11287 -1.11287,-1.11287 -1.11287,1.11287 -1.11287,1.11287 0.67189,1.08713 c 0.36954,0.59792 1.06877,1.08713 1.55385,1.08713 0.48508,0 1.18431,-0.48921 1.55385,-1.08713 z m 80.03297,27.18307 -1.58682,-1.75342 0,-2.51627 0,-2.51627 1.75,-1.56519 1.75,-1.56518 6.5,0 6.5,0 1.75,1.56518 1.75,1.56519 0,2.69002 0,2.69002 -1.75,1.55631 -1.75,1.5563 -6.66318,0.0234 -6.66317,0.0234 -1.58683,-1.75342 z m 5.96703,-3.18307 0.67189,-1.08713 -1.11287,-1.11287 -1.11287,-1.11287 -1.11287,1.11287 -1.11287,1.11287 0.67189,1.08713 c 0.36954,0.59792 1.06877,1.08713 1.55385,1.08713 0.48508,0 1.18431,-0.48921 1.55385,-1.08713 z m 8,0 0.67189,-1.08713 -1.11287,-1.11287 -1.11287,-1.11287 -1.11287,1.11287 -1.11287,1.11287 0.67189,1.08713 c 0.36954,0.59792 1.06877,1.08713 1.55385,1.08713 0.48508,0 1.18431,-0.48921 1.55385,-1.08713 z m -277.553855,-11.79043 0,-4.87755 -1.5,-1.24489 -1.5,-1.24489 0,-1.72257 0,-1.72256 1.828741,-1.65499 1.82874,-1.65499 1.516272,0 1.516272,0 1.654987,1.82874 1.654988,1.82874 0,1.54882 0,1.54881 -1.5,1.24489 -1.5,1.24489 0,2.87755 0,2.87756 13.047661,0 13.047661,0 -0.297661,-9.71854 -0.297661,-9.71853 1.85622,-0.37525 1.85622,-0.37524 0.956205,0.95621 0.956206,0.9562 -0.704752,11.13758 -0.704752,11.13757 -16.857674,0 -16.857673,0 0,-4.87756 z m 3.553851,-8.20957 0.671884,-1.08713 -1.112867,-1.11287 -1.112868,-1.11287 -1.112868,1.11287 -1.112867,1.11287 0.671884,1.08713 c 0.369537,0.59792 1.06877,1.08713 1.553851,1.08713 0.485081,0 1.184314,-0.48921 1.553851,-1.08713 z m 30,-4 0.671884,-1.08713 -1.112867,-1.11287 -1.112868,-1.11287 -1.112868,1.11287 -1.112867,1.11287 0.671884,1.08713 c 0.369537,0.59792 1.06877,1.08713 1.553851,1.08713 0.485081,0 1.184314,-0.48921 1.553851,-1.08713 z m 121.684474,15.92545 -1.23832,-1.23832 0,-1.74098 0,-1.74099 1,-0.61803 1,-0.61803 0,-4.44099 0,-4.44098 -8.87756,0 -8.87755,0 -1.24489,1.5 -1.24489,1.5 -1.67755,0 c -0.92266,0 -2.16451,-0.48695 -2.75966,-1.0821 l -1.0821,-1.0821 -2.1179,1.32264 -2.1179,1.32265 -2.09579,-1.30884 -2.09579,-1.30884 -1.73295,1.56829 -1.73295,1.5683 -2.51627,0 -2.51627,0 -1.65499,-1.82874 -1.65499,-1.82874 0,-2.51627 0,-2.51627 1.82874,-1.65499 1.82874,-1.65499 2.34252,0 2.34252,0 1.73295,1.5683 1.73295,1.56829 2.09579,-1.30884 2.09579,-1.30884 2.1179,1.32265 2.1179,1.32264 1.0821,-1.0821 c 0.59515,-0.59515 1.837,-1.0821 2.75966,-1.0821 l 1.67755,0 1.24489,1.5 1.24489,1.5 10.26092,0 10.26093,0 0.5437,-2.07911 0.5437,-2.07911 2.32293,0.32911 2.32293,0.32911 0,5.5 0,5.5 -2.25,0.31955 -2.25,0.31955 0,1.94402 c 0,1.06921 0.55922,2.83947 1.24271,3.9339 l 1.2427,1.98989 -1.09483,1.74655 -1.09484,1.74654 -1.90955,0.28832 -1.90955,0.28832 -1.23832,-1.23832 z m 4.31553,-1.92545 0.67189,-1.08713 -1.11287,-1.11287 -1.11287,-1.11287 -1.11287,1.11287 -1.11287,1.11287 0.67189,1.08713 c 0.36954,0.59792 1.06877,1.08713 1.55385,1.08713 0.48508,0 1.18431,-0.48921 1.55385,-1.08713 z m -42,-14 0.67189,-1.08713 -1.11287,-1.11287 -1.11287,-1.11287 -1.11287,1.11287 -1.11287,1.11287 0.67189,1.08713 c 0.36954,0.59792 1.06877,1.08713 1.55385,1.08713 0.48508,0 1.18431,-0.48921 1.55385,-1.08713 z m 10,0 0.67189,-1.08713 -1.11287,-1.11287 -1.11287,-1.11287 -1.11287,1.11287 -1.11287,1.11287 0.67189,1.08713 c 0.36954,0.59792 1.06877,1.08713 1.55385,1.08713 0.48508,0 1.18431,-0.48921 1.55385,-1.08713 z m 8,0 0.67189,-1.08713 -1.11287,-1.11287 -1.11287,-1.11287 -1.11287,1.11287 -1.11287,1.11287 0.67189,1.08713 c 0.36954,0.59792 1.06877,1.08713 1.55385,1.08713 0.48508,0 1.18431,-0.48921 1.55385,-1.08713 z m 28,0 0.67189,-1.08713 -1.11287,-1.11287 -1.11287,-1.11287 -1.11287,1.11287 -1.11287,1.11287 0.67189,1.08713 c 0.36954,0.59792 1.06877,1.08713 1.55385,1.08713 0.48508,0 1.18431,-0.48921 1.55385,-1.08713 z m 1.64615,15.88713 c -0.66,-0.66 -1.2,-1.92 -1.2,-2.8 0,-0.88 0.54,-2.14 1.2,-2.8 l 1.2,-1.2 1.73309,0 1.7331,0 -0.1831,-7.75 -0.18309,-7.75 2.5,0 2.5,0 -0.14966,7.47613 -0.14967,7.47612 1.89967,1.33058 1.89966,1.33058 0,1.74329 0,1.7433 -1.2,1.2 -1.2,1.2 -4.6,0 -4.6,0 -1.2,-1.2 z m 4.35385,-1.88713 0.67189,-1.08713 -1.11287,-1.11287 -1.11287,-1.11287 -1.11287,1.11287 -1.11287,1.11287 0.67189,1.08713 c 0.36954,0.59792 1.06877,1.08713 1.55385,1.08713 0.48508,0 1.18431,-0.48921 1.55385,-1.08713 z m 6,0 0.67189,-1.08713 -1.11287,-1.11287 -1.11287,-1.11287 -1.11287,1.11287 -1.11287,1.11287 0.67189,1.08713 c 0.36954,0.59792 1.06877,1.08713 1.55385,1.08713 0.48508,0 1.18431,-0.48921 1.55385,-1.08713 z m -2,-14 0.67189,-1.08713 -1.11287,-1.11287 -1.11287,-1.11287 -1.11287,1.11287 -1.11287,1.11287 0.67189,1.08713 c 0.36954,0.59792 1.06877,1.08713 1.55385,1.08713 0.48508,0 1.18431,-0.48921 1.55385,-1.08713 z m 84.10114,11.25839 -1.65499,-1.82874 0,-2.51627 0,-2.51627 1.82874,-1.65499 1.82874,-1.65499 2.54882,0 2.54881,0 1.24489,1.5 1.24489,1.5 2.75511,0 2.75511,0 1.24489,-1.5 1.24489,-1.5 2.75511,0 2.75511,0 1.24489,1.5 1.24489,1.5 2.87755,0 2.87756,0 0,-30.99999 0,-31 -12,0 -12,0 0,0.87755 c 0,0.48266 0.675,1.43776 1.5,2.12245 l 1.5,1.24489 0,2.72257 0,2.72256 -1.82874,1.65499 -1.82874,1.65499 -2.51627,0 -2.51627,0 -1.65499,-1.82874 -1.65499,-1.82874 0,-2.54882 0,-2.54881 1.5,-1.24489 1.5,-1.24489 0,-2.67756 0,-2.67755 1.2,-1.2 1.2,-1.2 13.8,0 13.8,0 0,-26 0,-26.000001 -44.5,0 -44.5,0 0,8.377551 0,8.37756 1.5,1.24489 1.5,1.24489 0,1.72257 0,1.72256 -1.82874,1.65499 -1.82874,1.65499 -1.51627,0 -1.51627,0 -1.65499,-1.82874 -1.65499,-1.82874 0,-1.54882 0,-1.54881 1.5,-1.24489 1.5,-1.24489 0,-8.37756 0,-8.377551 -13.1008,0 -13.10079,0 0.22136,13.250001 c 0.12176,7.2875 0.16711,16.0625 0.1008,19.5 l -0.12057,6.25 -13.87756,0 -13.87755,0 -1.24489,1.5 -1.24489,1.5 -1.75511,0 -1.75511,0 -1.24489,-1.5 -1.24489,-1.5 -4.87755,0 -4.87756,0 0,-2.84501 0,-2.84502 -2,-1.80997 -2,-1.80998 0,-2.69002 0,-2.69003 1.82874,-1.65498 1.82874,-1.65499 2.51627,0 2.51627,0 1.65499,1.82874 1.65499,1.82874 0,2.51627 0,2.51627 -2,1.80998 c -1.1,0.99548 -2,2.19023 -2,2.65499 l 0,0.84501 2.87756,0 2.87755,0 1.24489,-1.5 1.24489,-1.5 1.75511,0 1.75511,0 1.24489,1.5 1.24489,1.5 11.87755,0 11.87756,0 0,-2.10608 0,-2.10608 -2.5,-1.9665 -2.5,-1.9665 0,-1.85484 0,-1.85484 2.5,-1.9665 2.5,-1.9665 0,-9.60608 0,-9.606081 -55.5,0 -55.500005,0 0,14.940981 0,14.94098 1,0.61804 1,0.61803 0,1.81854 0,1.81854 -1.653377,1.37218 -1.653378,1.37218 -12.871681,-0.35274 -12.871681,-0.35274 -2.047522,2.60301 -2.047521,2.603 -1.804975,0 -1.804976,0 -1.244889,-1.5 -1.244889,-1.5 -5.755111,0 -5.755111,0 -1.244889,1.5 -1.244889,1.5 -1.722568,0 -1.722568,0 -1.654987,-1.82874 -1.654988,-1.82874 0,-1.51627 0,-1.51628 1.828741,-1.65498 1.82874,-1.65499 1.548815,0 1.548815,0 1.244889,1.5 1.244889,1.5 5.677556,0 5.677555,0 1.250141,-1.25 1.25014,-1.25 13.013526,0.35406 13.013527,0.35406 1.404529,-1.85406 1.40453,-1.85406 0.0318,-8.75 0.03181,-8.75 -3.513569,0 -3.513569,0 -1.989887,1.2427 -1.989887,1.24271 -1.679713,-1.05954 c -0.923843,-0.58274 -2.157486,-1.81696 -2.741429,-2.7427 l -1.061716,-1.68317 1.061716,-1.68317 c 0.583943,-0.92574 1.817586,-2.15996 2.741429,-2.74271 l 1.679713,-1.05953 1.989887,1.2427 1.989887,1.24271 3.513569,0 3.513569,0 0,-4.8 0,-4.800001 1.2,-1.2 1.2,-1.2 120.677562,0 120.67755,0 1.12984,1.361375 1.12984,1.361375 -0.25739,64.388621 -0.2574,64.38862 -5.66691,0.29742 -5.66692,0.29743 -1.20553,1.45257 -1.20553,1.45258 -2.75511,0 -2.75511,0 -1.24489,-1.5 -1.24489,-1.5 -2.75511,0 -2.75511,0 -1.24489,1.5 -1.24489,1.5 -2.72257,0 -2.72256,0 -1.65499,-1.82874 z m 5.89886,-3.25839 0.67189,-1.08713 -1.11287,-1.11287 -1.11287,-1.11287 -1.11287,1.11287 -1.11287,1.11287 0.67189,1.08713 c 0.36954,0.59792 1.06877,1.08713 1.55385,1.08713 0.48508,0 1.18431,-0.48921 1.55385,-1.08713 z m 16,0 0.67189,-1.08713 -1.11287,-1.11287 -1.11287,-1.11287 -1.11287,1.11287 -1.11287,1.11287 0.67189,1.08713 c 0.36954,0.59792 1.06877,1.08713 1.55385,1.08713 0.48508,0 1.18431,-0.48921 1.55385,-1.08713 z m -16,-57.99999 0.67189,-1.08714 -1.11287,-1.11286 -1.11287,-1.11287 -1.11287,1.11287 -1.11287,1.11286 0.67189,1.08714 c 0.36954,0.59792 1.06877,1.08713 1.55385,1.08713 0.48508,0 1.18431,-0.48921 1.55385,-1.08713 z m -260.000004,-28 0.671884,-1.08714 -1.112867,-1.11286 -1.112868,-1.11287 -1.112868,1.11287 -1.112867,1.11286 0.671884,1.08714 c 0.369537,0.59792 1.06877,1.08713 1.553851,1.08713 0.485081,0 1.184314,-0.48921 1.553851,-1.08713 z m 20,0 0.671884,-1.08714 -1.112867,-1.11286 -1.112868,-1.11287 -1.112868,1.11287 -1.112867,1.11286 0.671884,1.08714 c 0.369537,0.59792 1.06877,1.08713 1.553851,1.08713 0.485081,0 1.184314,-0.48921 1.553851,-1.08713 z m 116.000004,0 0.67189,-1.08714 -1.11287,-1.11286 -1.11287,-1.11287 -1.11287,1.11287 -1.11287,1.11286 0.67189,1.08714 c 0.36954,0.59792 1.06877,1.08713 1.55385,1.08713 0.48508,0 1.18431,-0.48921 1.55385,-1.08713 z m -86.000004,-4 0.671884,-1.08714 -1.112867,-1.11286 -1.112868,-1.11287 -1.112868,1.11287 -1.112867,1.11286 0.671884,1.08714 c 0.369537,0.59792 1.06877,1.08713 1.553851,1.08713 0.485081,0 1.184314,-0.48921 1.553851,-1.08713 z m 74.000004,-6 0.67189,-1.08714 -1.11287,-1.11286 -1.11287,-1.11287 -1.11287,1.11287 -1.11287,1.11286 0.67189,1.08714 c 0.36954,0.59792 1.06877,1.08713 1.55385,1.08713 0.48508,0 1.18431,-0.48921 1.55385,-1.08713 z m 40,-2 0.67189,-1.08714 -1.11287,-1.11286 -1.11287,-1.11287 -1.11287,1.11287 -1.11287,1.11286 0.67189,1.08714 c 0.36954,0.59792 1.06877,1.08713 1.55385,1.08713 0.48508,0 1.18431,-0.48921 1.55385,-1.08713 z m 32,-4 0.67189,-1.08714 -1.11287,-1.11286 -1.11287,-1.11287 -1.11287,1.11287 -1.11287,1.11286 0.67189,1.08714 c 0.36954,0.59792 1.06877,1.08713 1.55385,1.08713 0.48508,0 1.18431,-0.48921 1.55385,-1.08713 z m -160.000004,-12 0.671884,-1.08714 -1.112867,-1.11286 -1.112868,-1.11287 -1.112868,1.11287 -1.112867,1.11286 0.671884,1.08714 c 0.369537,0.59792 1.06877,1.08713 1.553851,1.08713 0.485081,0 1.184314,-0.48921 1.553851,-1.08713 z m -24.898863,112.25838 -1.654988,-1.82874 0,-1.54882 0,-1.54881 1.5,-1.24489 1.5,-1.24489 0,-8.87755 0,-8.87756 7.001878,0 7.001878,0 -0.251878,-8.71732 -0.251878,-8.71733 1.85622,-0.37645 1.85622,-0.37645 0.981859,0.98186 0.981859,0.98186 -0.7169,10.11191 -0.7169,10.11192 -6.871179,0 -6.871179,0 0,6.87756 0,6.87755 1.5,1.24489 1.5,1.24489 0,1.72257 0,1.72256 -1.828741,1.65499 -1.82874,1.65499 -1.516272,0 -1.516272,0 -1.654987,-1.82874 z m 4.898863,-2.25839 0.671884,-1.08713 -1.112867,-1.11287 -1.112868,-1.11287 -1.112868,1.11287 -1.112867,1.11287 0.671884,1.08713 c 0.369537,0.59792 1.06877,1.08713 1.553851,1.08713 0.485081,0 1.184314,-0.48921 1.553851,-1.08713 z m 14,-33.99999 0.671884,-1.08714 -1.112867,-1.11286 -1.112868,-1.11287 -1.112868,1.11287 -1.112867,1.11286 0.671884,1.08714 c 0.369537,0.59792 1.06877,1.08713 1.553851,1.08713 0.485081,0 1.184314,-0.48921 1.553851,-1.08713 z m 5.87859,33.77166 c -0.307239,-0.80065 -0.417727,-3.41971 -0.245529,-5.82014 l 0.313088,-4.3644 2.5,0 2.5,0 0,5.5 0,5.5 -2.254471,0.32014 -2.254471,0.32013 -0.558617,-1.45573 z m 4.12141,-3.77167 0.671884,-1.08713 -1.112867,-1.11287 -1.112868,-1.11287 -1.112868,1.11287 -1.112867,1.11287 0.671884,1.08713 c 0.369537,0.59792 1.06877,1.08713 1.553851,1.08713 0.485081,0 1.184314,-0.48921 1.553851,-1.08713 z m 45.878594,3.77167 c -0.30724,-0.80065 -0.41773,-3.41971 -0.24553,-5.82014 l 0.31309,-4.3644 2.5,0 2.5,0 0,5.5 0,5.5 -2.25447,0.32014 -2.25447,0.32013 -0.55862,-1.45573 z m 4.12141,-3.77167 0.67189,-1.08713 -1.11287,-1.11287 -1.11287,-1.11287 -1.11287,1.11287 -1.11287,1.11287 0.67189,1.08713 c 0.36954,0.59792 1.06877,1.08713 1.55385,1.08713 0.48508,0 1.18431,-0.48921 1.55385,-1.08713 z m 5.87859,3.77167 c -0.30724,-0.80065 -0.41773,-3.41971 -0.24553,-5.82014 l 0.31309,-4.3644 2.5,0 2.5,0 0,5.5 0,5.5 -2.25447,0.32014 -2.25447,0.32013 -0.55862,-1.45573 z m 4.12141,-3.77167 0.67189,-1.08713 -1.11287,-1.11287 -1.11287,-1.11287 -1.11287,1.11287 -1.11287,1.11287 0.67189,1.08713 c 0.36954,0.59792 1.06877,1.08713 1.55385,1.08713 0.48508,0 1.18431,-0.48921 1.55385,-1.08713 z m -24.06073,-25.99982 -0.71921,-9.08695 1.00683,-1.00683 1.00682,-1.00682 1.85622,0.37589 1.85622,0.3759 -0.18309,7.71789 -0.1831,7.71787 52.6831,0 52.68309,-1e-5 0,-10.96512 0,-10.96514 -5.25,-5.31631 -5.25,-5.3163 0,-1.59611 0,-1.59611 1.5,-1.24489 1.5,-1.24489 0,-3.87756 0,-3.87755 -37.87756,0 -37.87755,0 -1.24489,1.5 -1.24489,1.5 -1.72257,0 -1.72256,0 -1.65499,-1.82874 -1.65499,-1.82874 0,-1.51627 0,-1.51628 1.82874,-1.65498 1.82874,-1.65499 1.54882,0 1.54881,0 1.24489,1.5 1.24489,1.5 39.87755,0 39.87756,0 0,5.87755 0,5.87756 1.55007,1.28645 1.55008,1.28644 -0.29782,2.27269 -0.29782,2.27269 2.83578,2.95992 2.83579,2.95992 0.16196,12.60255 0.16196,12.60254 24.75,8.4e-4 24.75,8.4e-4 0,-5.99999 0,-6 5.84501,0 5.84501,0 1.80998,-2 1.80998,-2 2.69002,0 2.69002,0 1.80998,2 1.80998,2 1.69002,0 1.69002,0 1.65499,-1.82874 1.65499,-1.82874 0,-2.54882 0,-2.54881 -1.5,-1.24489 -1.5,-1.24489 0,-2.72257 0,-2.72257 1.82874,-1.65498 1.82874,-1.65499 2.51627,0 2.51627,0 1.65499,1.82874 1.65499,1.82874 0,2.54881 0,2.54882 -1.5,1.24489 -1.5,1.24489 0,2.75511 0,2.75511 1.5,1.24489 1.5,1.24489 0,2.72257 0,2.72256 -1.82874,1.65499 -1.82874,1.65498 -2.51627,0 -2.51627,0 -1.80998,-1.99999 -1.80998,-2 -1.69002,0 -1.69002,0 -1.80998,2 -1.80998,1.99999 -2.69002,0 -2.69002,0 -1.80998,-1.99999 -1.80998,-2 -3.84501,0 -3.84501,0 0,5.99999 0,6 -83.89384,0 -83.89384,0 -0.7192,-9.08695 z m 4.06073,-4.00017 0.67189,-1.08714 -1.11287,-1.11286 -1.11287,-1.11287 -1.11287,1.11287 -1.11287,1.11286 0.67189,1.08714 c 0.36954,0.59792 1.06877,1.08713 1.55385,1.08713 0.48508,0 1.18431,-0.48921 1.55385,-1.08713 z m 110,0 0.67189,-1.08714 -1.11287,-1.11286 -1.11287,-1.11287 -1.11287,1.11287 -1.11287,1.11286 0.67189,1.08714 c 0.36954,0.59792 1.06877,1.08713 1.55385,1.08713 0.48508,0 1.18431,-0.48921 1.55385,-1.08713 z m 70,0 0.67189,-1.08714 -1.11287,-1.11286 -1.11287,-1.11287 -1.11287,1.11287 -1.11287,1.11286 0.67189,1.08714 c 0.36954,0.59792 1.06877,1.08713 1.55385,1.08713 0.48508,0 1.18431,-0.48921 1.55385,-1.08713 z m 16,0 0.67189,-1.08714 -1.11287,-1.11286 -1.11287,-1.11287 -1.11287,1.11287 -1.11287,1.11286 0.67189,1.08714 c 0.36954,0.59792 1.06877,1.08713 1.55385,1.08713 0.48508,0 1.18431,-0.48921 1.55385,-1.08713 z m 0,-16 0.67189,-1.08714 -1.11287,-1.11286 -1.11287,-1.11287 -1.11287,1.11287 -1.11287,1.11286 0.67189,1.08714 c 0.36954,0.59792 1.06877,1.08713 1.55385,1.08713 0.48508,0 1.18431,-0.48921 1.55385,-1.08713 z m -94,-8 0.67189,-1.08714 -1.11287,-1.11286 -1.11287,-1.11287 -1.11287,1.11287 -1.11287,1.11286 0.67189,1.08714 c 0.36954,0.59792 1.06877,1.08713 1.55385,1.08713 0.48508,0 1.18431,-0.48921 1.55385,-1.08713 z m -82,-14 0.67189,-1.08714 -1.11287,-1.11286 -1.11287,-1.11287 -1.11287,1.11287 -1.11287,1.11286 0.67189,1.08714 c 0.36954,0.59792 1.06877,1.08713 1.55385,1.08713 0.48508,0 1.18431,-0.48921 1.55385,-1.08713 z M 67.485826,189.0491 c -0.307239,-0.80065 -0.417727,-3.41972 -0.245529,-5.82014 l 0.313088,-4.3644 2.5,0 2.5,0 0,5.5 0,5.5 -2.254471,0.32013 -2.254471,0.32013 -0.558617,-1.45572 z m 4.12141,-3.77167 0.671884,-1.08714 -1.112867,-1.11286 -1.112868,-1.11287 -1.112868,1.11287 -1.112867,1.11286 0.671884,1.08714 c 0.369537,0.59792 1.06877,1.08713 1.553851,1.08713 0.485081,0 1.184314,-0.48921 1.553851,-1.08713 z m 5.783224,3.52315 -0.600155,-1.56398 0.65939,-6.43602 0.659389,-6.43602 -5.027849,0 -5.02785,0 0,-12 0,-12 16,0 16.000005,0 0,5 0,5 28.34501,0 28.34501,0 1.56519,1.75 1.56518,1.75 0,6.5 0,6.5 -1.56518,1.75 -1.56519,1.75 -2.69002,0 -2.69002,0 -1.74179,-1.92466 -1.74179,-1.92465 0.23217,-3.32535 c 0.12769,-1.82894 0.16675,-4.56284 0.0868,-6.07534 l -0.14537,-2.75 -26,0 -26.000005,0 0,-5 0,-5 -12,0 -12,0 0,8 0,8 4.893838,0 4.893838,0 0.706972,8.93238 0.706972,8.93238 -0.659827,1.06762 -0.659827,1.06761 -1.972368,0 -1.972368,0 -0.600155,-1.56397 z m 4.216776,-3.52315 0.671884,-1.08714 -1.112867,-1.11286 -1.112868,-1.11287 -1.112868,1.11287 -1.112867,1.11286 0.671884,1.08714 c 0.369537,0.59792 1.06877,1.08713 1.553851,1.08713 0.485081,0 1.184314,-0.48921 1.553851,-1.08713 z m 74.000004,-10 0.67189,-1.08714 -1.11287,-1.11286 -1.11287,-1.11287 -1.11287,1.11287 -1.11287,1.11286 0.67189,1.08714 c 0.36954,0.59792 1.06877,1.08713 1.55385,1.08713 0.48508,0 1.18431,-0.48921 1.55385,-1.08713 z m 0,-8 0.67189,-1.08714 -1.11287,-1.11286 -1.11287,-1.11287 -1.11287,1.11287 -1.11287,1.11286 0.67189,1.08714 c 0.36954,0.59792 1.06877,1.08713 1.55385,1.08713 0.48508,0 1.18431,-0.48921 1.55385,-1.08713 z m -58.037465,22.11365 -0.67233,-1.08785 0.706791,-9.96934 0.706791,-9.96933 21.871183,0 21.87118,0 0,8 0,8 11,0 11,0 0,-11.87756 0,-11.87755 -1.5,-1.24489 -1.5,-1.24489 0,-1.72257 0,-1.72257 1.75,-1.41814 1.75,-1.41814 19.75,0.33962 19.75,0.33961 0,6.13569 0,6.13569 4.01678,4.0928 4.01678,4.0928 0.23322,8.44505 0.23322,8.44505 -2.5,0 -2.5,0 0,-7.18847 0,-7.18848 -3.25,-3.35913 -3.25,-3.35914 0,-6.20239 0,-6.20239 -14.58971,0 -14.5897,0 -1.87703,2.25 -1.87702,2.25 -0.0333,13.75 -0.0332,13.75 -15,0 -15,0 0,-8 0,-8 -18.00188,0 -18.00188,0 0.25188,8.75 0.25188,8.75 -2.15564,0.30718 -2.155646,0.30718 -0.672329,-1.08784 z m 4.037465,-4.11365 0.67188,-1.08714 -1.11287,-1.11286 -1.11286,-1.11287 -1.112873,1.11287 -1.112867,1.11286 0.671884,1.08714 c 0.369537,0.59792 1.06877,1.08713 1.553856,1.08713 0.48508,0 1.18431,-0.48921 1.55385,-1.08713 z m 110,0 0.67189,-1.08714 -1.11287,-1.11286 -1.11287,-1.11287 -1.11287,1.11287 -1.11287,1.11286 0.67189,1.08714 c 0.36954,0.59792 1.06877,1.08713 1.55385,1.08713 0.48508,0 1.18431,-0.48921 1.55385,-1.08713 z m -44,-28 0.67189,-1.08714 -1.11287,-1.11286 -1.11287,-1.11287 -1.11287,1.11287 -1.11287,1.11286 0.67189,1.08714 c 0.36954,0.59792 1.06877,1.08713 1.55385,1.08713 0.48508,0 1.18431,-0.48921 1.55385,-1.08713 z m -50.12141,31.77167 c -0.30724,-0.80065 -0.41773,-3.41972 -0.24553,-5.82014 l 0.31309,-4.3644 2.5,0 2.5,0 0,5.5 0,5.5 -2.25447,0.32013 -2.25447,0.32013 -0.55862,-1.45572 z m 4.12141,-3.77167 0.67189,-1.08714 -1.11287,-1.11286 -1.11287,-1.11287 -1.11287,1.11287 -1.11287,1.11286 0.67189,1.08714 c 0.36954,0.59792 1.06877,1.08713 1.55385,1.08713 0.48508,0 1.18431,-0.48921 1.55385,-1.08713 z m 5.87859,3.77167 c -0.30724,-0.80065 -0.41773,-3.41972 -0.24553,-5.82014 l 0.31309,-4.3644 2.5,0 2.5,0 0,5.5 0,5.5 -2.25447,0.32013 -2.25447,0.32013 -0.55862,-1.45572 z m 4.12141,-3.77167 0.67189,-1.08714 -1.11287,-1.11286 -1.11287,-1.11287 -1.11287,1.11287 -1.11287,1.11286 0.67189,1.08714 c 0.36954,0.59792 1.06877,1.08713 1.55385,1.08713 0.48508,0 1.18431,-0.48921 1.55385,-1.08713 z m 55.75659,3.16624 -0.5437,-2.07911 -3.26093,0 -3.26092,0 -1.24489,1.5 -1.24489,1.5 -1.72257,0 -1.72256,0 -1.65499,-1.82874 -1.65499,-1.82874 0,-1.59868 0,-1.59868 2.5,-1.9665 2.5,-1.9665 0,-3.98364 0,-3.98363 -1.5,-1.24489 -1.5,-1.24489 0,-1.72257 0,-1.72257 1.82874,-1.65498 1.82874,-1.65499 1.59868,0 1.59868,0 1.86278,2.25 c 1.02453,1.2375 2.74469,2.74823 3.82258,3.35718 l 1.9598,1.10719 0.33258,1.69085 0.33257,1.69086 -1.20502,1.45196 -1.20502,1.45196 -2.87755,0 -2.87756,0 0,4 0,4 3.38337,0 3.38337,0 0.5437,-2.07911 0.5437,-2.07911 2.32293,0.32911 2.32293,0.32911 0,5.5 0,5.5 -2.32293,0.3291 -2.32293,0.32911 -0.5437,-2.0791 z m -9.75659,-3.16624 0.67189,-1.08714 -1.11287,-1.11286 -1.11287,-1.11287 -1.11287,1.11287 -1.11287,1.11286 0.67189,1.08714 c 0.36954,0.59792 1.06877,1.08713 1.55385,1.08713 0.48508,0 1.18431,-0.48921 1.55385,-1.08713 z m 14,0 0.67189,-1.08714 -1.11287,-1.11286 -1.11287,-1.11287 -1.11287,1.11287 -1.11287,1.11286 0.67189,1.08714 c 0.36954,0.59792 1.06877,1.08713 1.55385,1.08713 0.48508,0 1.18431,-0.48921 1.55385,-1.08713 z m -6,-14 0.67189,-1.08714 -1.11287,-1.11286 -1.11287,-1.11287 -1.11287,1.11287 -1.11287,1.11286 0.67189,1.08714 c 0.36954,0.59792 1.06877,1.08713 1.55385,1.08713 0.48508,0 1.18431,-0.48921 1.55385,-1.08713 z m -6,-4 0.67189,-1.08714 -1.11287,-1.11286 -1.11287,-1.11287 -1.11287,1.11287 -1.11287,1.11286 0.67189,1.08714 c 0.36954,0.59792 1.06877,1.08713 1.55385,1.08713 0.48508,0 1.18431,-0.48921 1.55385,-1.08713 z m 18.155,22.46265 -0.70885,-0.70885 0,-5.13717 0,-5.13717 -3.54398,-3.43496 -3.54398,-3.43496 0.29398,-4.90821 0.29398,-4.90821 1.75,-1.09788 1.75,-1.09788 1.75,1.09839 1.75,1.0984 0.30567,5.89649 0.30567,5.89649 2.5013,2.61418 2.5013,2.61418 -0.30697,5.38582 -0.30697,5.38582 -2.04115,0.29217 -2.04115,0.29219 -0.70885,-0.70884 z m 3.845,-4.46265 0.67189,-1.08714 -1.11287,-1.11286 -1.11287,-1.11287 -1.11287,1.11287 -1.11287,1.11286 0.67189,1.08714 c 0.36954,0.59792 1.06877,1.08713 1.55385,1.08713 0.48508,0 1.18431,-0.48921 1.55385,-1.08713 z m -6,-14 0.67189,-1.08714 -1.11287,-1.11286 -1.11287,-1.11287 -1.11287,1.11287 -1.11287,1.11286 0.67189,1.08714 c 0.36954,0.59792 1.06877,1.08713 1.55385,1.08713 0.48508,0 1.18431,-0.48921 1.55385,-1.08713 z m 0,-6 0.67189,-1.08714 -1.11287,-1.11286 -1.11287,-1.11287 -1.11287,1.11287 -1.11287,1.11286 0.67189,1.08714 c 0.36954,0.59792 1.06877,1.08713 1.55385,1.08713 0.48508,0 1.18431,-0.48921 1.55385,-1.08713 z m 31.9509,24.09481 -0.68398,-1.10669 0.71408,-9.52447 0.71408,-9.52448 -3.37446,-3.48257 -3.37447,-3.48257 0.35527,-11.94345 0.35527,-11.94345 -6.10527,0 -6.10527,0 0,-6.87756 0,-6.87755 -1.5,-1.24489 -1.5,-1.24489 0,-1.72257 0,-1.72257 1.82874,-1.65498 1.82874,-1.65499 1.51627,0 1.51627,0 1.65499,1.82874 1.65499,1.82874 0,1.54881 0,1.54882 -1.5,1.24489 -1.5,1.24489 0,4.87755 0,4.87756 6,0 6,0 0,10.10608 0,10.10608 2.55626,2.01075 2.55625,2.01075 -0.2754,2.13317 c -0.15147,1.17324 -9.1e-4,2.58317 0.33458,3.13317 l 0.60998,1 0.35917,12.5 0.35916,12.5 -2.15564,0.30718 -2.15564,0.30718 -0.68397,-1.10668 z m 4.0491,-4.09481 0.67189,-1.08714 -1.11287,-1.11286 -1.11287,-1.11287 -1.11287,1.11287 -1.11287,1.11286 0.67189,1.08714 c 0.36954,0.59792 1.06877,1.08713 1.55385,1.08713 0.48508,0 1.18431,-0.48921 1.55385,-1.08713 z m -4,-24 0.67189,-1.08714 -1.11287,-1.11286 -1.11287,-1.11287 -1.11287,1.11287 -1.11287,1.11286 0.67189,1.08714 c 0.36954,0.59792 1.06877,1.08713 1.55385,1.08713 0.48508,0 1.18431,-0.48921 1.55385,-1.08713 z m -14,-40 0.67189,-1.08714 -1.11287,-1.11286 -1.11287,-1.11287 -1.11287,1.11287 -1.11287,1.11286 0.67189,1.08714 c 0.36954,0.59792 1.06877,1.08713 1.55385,1.08713 0.48508,0 1.18431,-0.48921 1.55385,-1.08713 z m 24.11793,68.42558 -0.74591,-0.74592 0.67024,-12.06329 0.67025,-12.06329 -1.63318,-1.35542 -1.63318,-1.35542 0,-1.75511 0,-1.75511 1.5,-1.24489 1.5,-1.24489 0,-8.87756 0,-8.87755 5.82569,0 5.82568,0 2.17432,-2.31445 2.17431,-2.31445 0,-1.53057 0,-1.53056 -2,-1.80997 -2,-1.80998 0,-2.69002 0,-2.69003 1.82874,-1.65498 1.82874,-1.65499 2.51627,0 2.51627,0 1.65499,1.82874 1.65499,1.82874 0,2.51627 0,2.51627 -2,1.80998 -2,1.80997 0,1.69003 0,1.69002 2,1.80998 2,1.80997 0,2.69003 0,2.69002 -1.82874,1.65499 -1.82874,1.65499 -2.51627,0 -2.51627,0 -1.80998,-2 -1.80998,-2 -3.84501,0 -3.84501,0 0,6.87755 0,6.87756 1.5,1.24489 1.5,1.24489 0,1.75511 0,1.75511 -1.60308,1.33044 -1.60308,1.33043 0.35308,12.54201 0.35308,12.54201 -2.04115,0.29217 -2.04115,0.29219 -0.74592,-0.74591 z m 3.88207,-4.42558 0.67189,-1.08714 -1.11287,-1.11286 -1.11287,-1.11287 -1.11287,1.11287 -1.11287,1.11286 0.67189,1.08714 c 0.36954,0.59792 1.06877,1.08713 1.55385,1.08713 0.48508,0 1.18431,-0.48921 1.55385,-1.08713 z m 0,-24 0.67189,-1.08714 -1.11287,-1.11286 -1.11287,-1.11287 -1.11287,1.11287 -1.11287,1.11286 0.67189,1.08714 c 0.36954,0.59792 1.06877,1.08713 1.55385,1.08713 0.48508,0 1.18431,-0.48921 1.55385,-1.08713 z m 16,-20 0.67189,-1.08714 -1.11287,-1.11286 -1.11287,-1.11287 -1.11287,1.11287 -1.11287,1.11286 0.67189,1.08714 c 0.36954,0.59792 1.06877,1.08713 1.55385,1.08713 0.48508,0 1.18431,-0.48921 1.55385,-1.08713 z m 0,-16 0.67189,-1.08714 -1.11287,-1.11286 -1.11287,-1.11287 -1.11287,1.11287 -1.11287,1.11286 0.67189,1.08714 c 0.36954,0.59792 1.06877,1.08713 1.55385,1.08713 0.48508,0 1.18431,-0.48921 1.55385,-1.08713 z m -9.85991,64.39432 c -0.27213,-0.44396 -0.24823,-9.46969 0.0531,-20.05719 l 0.54788,-19.25 8.85254,0 8.85254,0 0,-19 0,-19 -9.84501,0 -9.84501,0 -1.72329,1.90421 -1.72328,1.9042 1.311,2.09925 1.311,2.09925 -1.05954,1.67971 c -0.58274,0.92385 -1.81696,2.15749 -2.7427,2.74143 l -1.68317,1.06172 -1.68317,-1.06172 c -0.92574,-0.58394 -2.15996,-1.81758 -2.7427,-2.74143 l -1.05954,-1.67971 1.311,-2.09925 1.311,-2.09925 -1.56829,-1.73294 -1.5683,-1.73295 0,-2.51627 0,-2.51628 1.82874,-1.65498 1.82874,-1.65499 2.51627,0 2.51627,0 1.80998,2 1.80998,2 11.84501,0 11.84501,0 0,23 0,23 -9.13503,0 -9.13503,0 0.38503,17.75 0.38503,17.75 -2.15564,0.30718 -2.15564,0.30718 -0.49478,-0.80717 z m 3.85991,-4.39432 0.67189,-1.08714 -1.11287,-1.11286 -1.11287,-1.11287 -1.11287,1.11287 -1.11287,1.11286 0.67189,1.08714 c 0.36954,0.59792 1.06877,1.08713 1.55385,1.08713 0.48508,0 1.18431,-0.48921 1.55385,-1.08713 z m -10,-64 0.67189,-1.08714 -1.11287,-1.11286 -1.11287,-1.11287 -1.11287,1.11287 -1.11287,1.11286 0.67189,1.08714 c 0.36954,0.59792 1.06877,1.08713 1.55385,1.08713 0.48508,0 1.18431,-0.48921 1.55385,-1.08713 z m 0,-10 0.67189,-1.08714 -1.11287,-1.11286 -1.11287,-1.11287 -1.11287,1.11287 -1.11287,1.11286 0.67189,1.08714 c 0.36954,0.59792 1.06877,1.08713 1.55385,1.08713 0.48508,0 1.18431,-0.48921 1.55385,-1.08713 z m -214.898867,70.25839 -1.654988,-1.82874 0,-1.54882 0,-1.54881 1.5,-1.24489 1.5,-1.24489 0,-4.75511 0,-4.75511 -1.5,-1.24489 -1.5,-1.24489 0,-1.72257 0,-1.72257 1.828741,-1.65498 1.82874,-1.65499 1.516272,0 1.516272,0 1.654987,1.82874 1.654988,1.82874 0,1.54881 0,1.54882 -1.5,1.24489 -1.5,1.24489 0,4.75511 0,4.75511 1.5,1.24489 1.5,1.24489 0,1.72257 0,1.72256 -1.828741,1.65499 -1.82874,1.65499 -1.516272,0 -1.516272,0 -1.654987,-1.82874 z m 4.898863,-2.25839 0.671884,-1.08714 -1.112867,-1.11286 -1.112868,-1.11287 -1.112868,1.11287 -1.112867,1.11286 0.671884,1.08714 c 0.369537,0.59792 1.06877,1.08713 1.553851,1.08713 0.485081,0 1.184314,-0.48921 1.553851,-1.08713 z m 0,-18 0.671884,-1.08714 -1.112867,-1.11286 -1.112868,-1.11287 -1.112868,1.11287 -1.112867,1.11286 0.671884,1.08714 c 0.369537,0.59792 1.06877,1.08713 1.553851,1.08713 0.485081,0 1.184314,-0.48921 1.553851,-1.08713 z m 11.101137,20.25839 -1.654988,-1.82874 0,-1.59868 0,-1.59868 2.5,-1.9665 2.5,-1.9665 0,-3.98364 0,-3.98363 -1.5,-1.24489 -1.5,-1.24489 0,-1.72257 0,-1.72257 1.828741,-1.65498 1.82874,-1.65499 1.516272,0 1.516272,0 1.654987,1.82874 1.654988,1.82874 0,1.54881 0,1.54882 -1.627261,1.35051 -1.627261,1.3505 0.52822,7.70658 0.528221,7.70658 -1.7297,1.56536 c -0.951335,0.86095 -2.412023,1.56536 -3.245972,1.56536 l -1.516272,0 -1.654987,-1.82874 z m 4.898863,-2.25839 0.671884,-1.08714 -1.112867,-1.11286 -1.112868,-1.11287 -1.112868,1.11287 -1.112867,1.11286 0.671884,1.08714 c 0.369537,0.59792 1.06877,1.08713 1.553851,1.08713 0.485081,0 1.184314,-0.48921 1.553851,-1.08713 z m 2,-18 0.671884,-1.08714 -1.112867,-1.11286 -1.112868,-1.11287 -1.112868,1.11287 -1.112867,1.11286 0.671884,1.08714 c 0.369537,0.59792 1.06877,1.08713 1.553851,1.08713 0.485081,0 1.184314,-0.48921 1.553851,-1.08713 z m 210.101144,17.25839 -1.65499,-1.82874 0,-2.47126 0,-2.47126 1.2,-1.2 1.2,-1.2 -1.2,-1.2 -1.2,-1.2 0,-2.64501 0,-2.64502 1.82874,-1.65498 1.82874,-1.65499 2.51627,0 2.51627,0 1.65499,1.82874 1.65499,1.82874 0,2.47126 0,2.47126 -1.2,1.2 -1.2,1.2 1.2,1.2 1.2,1.2 0,2.64501 0,2.64501 -1.82874,1.65499 -1.82874,1.65499 -2.51627,0 -2.51627,0 -1.65499,-1.82874 z m 5.89886,-3.25839 0.67189,-1.08714 -1.11287,-1.11286 -1.11287,-1.11287 -1.11287,1.11287 -1.11287,1.11286 0.67189,1.08714 c 0.36954,0.59792 1.06877,1.08713 1.55385,1.08713 0.48508,0 1.18431,-0.48921 1.55385,-1.08713 z m 0,-10 0.67189,-1.08714 -1.11287,-1.11286 -1.11287,-1.11287 -1.11287,1.11287 -1.11287,1.11286 0.67189,1.08714 c 0.36954,0.59792 1.06877,1.08713 1.55385,1.08713 0.48508,0 1.18431,-0.48921 1.55385,-1.08713 z m -230.898867,-13.74161 -1.654988,-1.82874 0,-1.51627 0,-1.51628 1.828741,-1.65498 1.82874,-1.65499 1.548815,0 1.548815,0 1.244889,1.5 1.244889,1.5 4.967263,0 4.967263,0 1.752681,-2.16447 1.752681,-2.16447 24.157611,0.23784 24.157617,0.23784 0,-10.07337 0,-10.07337 -2.87756,0 -2.877556,0 -1.244889,1.5 -1.244889,1.5 -1.722568,0 -1.722568,0 -1.654987,-1.82874 -1.654988,-1.82874 0,-1.51627 0,-1.51628 1.828741,-1.65498 1.82874,-1.65499 1.548815,0 1.548815,0 1.244889,1.5 1.244889,1.5 4.877556,0 4.87756,0 0,11.87755 0,11.87756 1.5,1.24489 1.5,1.24489 0,1.72257 0,1.72256 -1.82874,1.65499 -1.82874,1.65499 -1.59869,0 -1.59867,0 -1.9665,-2.5 -1.9665,-2.5 -18.212165,0 -18.21216,0 -1.868867,2.37588 -1.868867,2.37588 -8.798226,-0.50165 -8.798227,-0.50166 -1.349271,1.62578 -1.349271,1.62577 -1.722568,0 -1.722568,0 -1.654987,-1.82874 z m 4.898863,-2.25839 0.671884,-1.08714 -1.112867,-1.11286 -1.112868,-1.11287 -1.112868,1.11287 -1.112867,1.11286 0.671884,1.08714 c 0.369537,0.59792 1.06877,1.08713 1.553851,1.08713 0.485081,0 1.184314,-0.48921 1.553851,-1.08713 z m 20,-2 0.671884,-1.08714 -1.112867,-1.11286 -1.112868,-1.11287 -1.112868,1.11287 -1.112867,1.11286 0.671884,1.08714 c 0.369537,0.59792 1.06877,1.08713 1.553851,1.08713 0.485081,0 1.184314,-0.48921 1.553851,-1.08713 z m 48.000004,0 0.67189,-1.08714 -1.11287,-1.11286 -1.11287,-1.11287 -1.11287,1.11287 -1.11287,1.11286 0.67188,1.08714 c 0.36954,0.59792 1.06877,1.08713 1.55386,1.08713 0.48508,0 1.18431,-0.48921 1.55385,-1.08713 z m -12.000004,-26 0.671884,-1.08714 -1.112867,-1.11286 -1.112868,-1.11287 -1.112868,1.11287 -1.112867,1.11286 0.671884,1.08714 c 0.369537,0.59792 1.06877,1.08713 1.553851,1.08713 0.485081,0 1.184314,-0.48921 1.553851,-1.08713 z m 196.032974,23.18307 -1.58682,-1.75342 0,-2.51627 0,-2.51628 1.75,-1.56518 1.75,-1.56518 6.5,0 6.5,0 1.75,1.56518 1.75,1.56518 0,2.69003 0,2.69002 -1.75,1.55631 -1.75,1.5563 -6.66318,0.0234 -6.66317,0.0234 -1.58683,-1.75342 z m 5.96703,-3.18307 0.67189,-1.08714 -1.11287,-1.11286 -1.11287,-1.11287 -1.11287,1.11287 -1.11287,1.11286 0.67189,1.08714 c 0.36954,0.59792 1.06877,1.08713 1.55385,1.08713 0.48508,0 1.18431,-0.48921 1.55385,-1.08713 z m 8,0 0.67189,-1.08714 -1.11287,-1.11286 -1.11287,-1.11287 -1.11287,1.11287 -1.11287,1.11286 0.67189,1.08714 c 0.36954,0.59792 1.06877,1.08713 1.55385,1.08713 0.48508,0 1.18431,-0.48921 1.55385,-1.08713 z m -190.89886,-1.74161 -1.65499,-1.82874 0,-1.54882 0,-1.54881 1.5,-1.24489 1.5,-1.24489 0,-4.87756 0,-4.87755 11.00188,0 11.00188,0 -0.25188,-8.71733 -0.25188,-8.71733 1.85622,-0.37645 1.85622,-0.37645 0.98186,0.98186 0.98186,0.98186 -0.7169,10.11192 -0.7169,10.11192 -10.87118,0 -10.87118,0 0,2.87755 0,2.87756 1.5,1.24489 1.5,1.24489 0,1.72257 0,1.72256 -1.82874,1.65499 -1.82874,1.65499 -1.51627,0 -1.51627,0 -1.65499,-1.82874 z m 4.89886,-2.25839 0.67189,-1.08714 -1.11287,-1.11286 -1.11287,-1.11287 -1.11287,1.11287 -1.11287,1.11286 0.67189,1.08714 c 0.36954,0.59792 1.06877,1.08713 1.55385,1.08713 0.48508,0 1.18431,-0.48921 1.55385,-1.08713 z m 22,-26 0.67189,-1.08714 -1.11287,-1.11286 -1.11287,-1.11287 -1.11287,1.11287 -1.11287,1.11286 0.67189,1.08714 c 0.36954,0.59792 1.06877,1.08713 1.55385,1.08713 0.48508,0 1.18431,-0.48921 1.55385,-1.08713 z m 31.94615,17.08713 -1.80998,-2 -2.19002,0 -2.19002,0 -1.65499,-1.82874 -1.65499,-1.82874 0,-2.51627 0,-2.51628 1.82874,-1.65498 1.82874,-1.65499 2.51627,0 2.51627,0 1.80998,2 1.80998,2 2.19002,0 2.19002,0 1.65499,1.82874 1.65499,1.82874 0,2.51627 0,2.51627 -1.82874,1.65499 -1.82874,1.65499 -2.51627,0 -2.51627,0 -1.80998,-2 z m 6.05385,-3.08713 0.67189,-1.08714 -1.11287,-1.11286 -1.11287,-1.11287 -1.11287,1.11287 -1.11287,1.11286 0.67189,1.08714 c 0.36954,0.59792 1.06877,1.08713 1.55385,1.08713 0.48508,0 1.18431,-0.48921 1.55385,-1.08713 z m -8,-4 0.67189,-1.08714 -1.11287,-1.11286 -1.11287,-1.11287 -1.11287,1.11287 -1.11287,1.11286 0.67189,1.08714 c 0.36954,0.59792 1.06877,1.08713 1.55385,1.08713 0.48508,0 1.18431,-0.48921 1.55385,-1.08713 z m 120.03297,7.18307 -1.58682,-1.75342 0,-2.51627 0,-2.51628 1.75,-1.56518 1.75,-1.56518 6.5,0 6.5,0 1.75,1.56518 1.75,1.56518 0,2.69003 0,2.69002 -1.75,1.55631 -1.75,1.5563 -6.66318,0.0234 -6.66317,0.0234 -1.58683,-1.75342 z m 5.96703,-3.18307 0.67189,-1.08714 -1.11287,-1.11286 -1.11287,-1.11287 -1.11287,1.11287 -1.11287,1.11286 0.67189,1.08714 c 0.36954,0.59792 1.06877,1.08713 1.55385,1.08713 0.48508,0 1.18431,-0.48921 1.55385,-1.08713 z m 8,0 0.67189,-1.08714 -1.11287,-1.11286 -1.11287,-1.11287 -1.11287,1.11287 -1.11287,1.11286 0.67189,1.08714 c 0.36954,0.59792 1.06877,1.08713 1.55385,1.08713 0.48508,0 1.18431,-0.48921 1.55385,-1.08713 z m -177.845,-9.53736 c -0.38987,-0.38986 -0.70885,-1.75884 -0.70885,-3.04218 l 0,-2.33333 -8.37756,0 -8.37755,0 -1.24489,1.5 -1.24489,1.5 -1.72257,0 -1.72257,0 -1.65499,-1.82874 -1.65498,-1.82874 0,-1.51627 0,-1.51628 1.82874,-1.65498 1.82874,-1.65499 1.54881,0 1.54882,0 1.24489,1.5 1.24489,1.5 7.89112,0 7.89113,0 1.85396,-1.15782 1.85397,-1.15782 1.68511,0.64664 1.68511,0.64663 -0.30264,5.26119 -0.30265,5.26118 -2.04115,0.29218 -2.04115,0.29218 -0.70885,-0.70885 z m 3.845,-4.46264 0.67189,-1.08714 -1.11287,-1.11286 -1.11287,-1.11287 -1.11287,1.11287 -1.11287,1.11286 0.67189,1.08714 c 0.36954,0.59792 1.06877,1.08713 1.55385,1.08713 0.48508,0 1.18431,-0.48921 1.55385,-1.08713 z m -24,-2 0.67189,-1.08714 -1.11287,-1.11286 -1.11287,-1.11287 -1.11287,1.11287 -1.11287,1.11286 0.67188,1.08714 c 0.36954,0.59792 1.06877,1.08713 1.55386,1.08713 0.48508,0 1.18431,-0.48921 1.55385,-1.08713 z m 40.155,6.46264 -0.70885,-0.70884 0,-4.86472 0,-4.86472 1.63247,-0.62644 1.63246,-0.62643 1.85397,1.15782 1.85396,1.15782 12.95455,0 12.95456,0 0.61803,-1 0.61803,-1 2.786,0 2.78599,0 1.65499,1.82874 1.65499,1.82874 0,2.51627 0,2.51627 -1.82874,1.65499 -1.82874,1.65499 -2.51627,0 -2.51627,0 -1.65499,-1.82874 c -0.91025,-1.00581 -1.65499,-2.35581 -1.65499,-3 l 0,-1.17126 -12.43358,0 -12.43358,0 -0.31642,2.75 -0.31642,2.75 -2.04115,0.29218 -2.04115,0.29218 -0.70885,-0.70885 z m 3.845,-4.46264 0.67189,-1.08714 -1.11287,-1.11286 -1.11287,-1.11287 -1.11287,1.11287 -1.11287,1.11286 0.67189,1.08714 c 0.36954,0.59792 1.06877,1.08713 1.55385,1.08713 0.48508,0 1.18431,-0.48921 1.55385,-1.08713 z m 34,0 0.67189,-1.08714 -1.11287,-1.11286 -1.11287,-1.11287 -1.11287,1.11287 -1.11287,1.11286 0.67189,1.08714 c 0.36954,0.59792 1.06877,1.08713 1.55385,1.08713 0.48508,0 1.18431,-0.48921 1.55385,-1.08713 z"
     id="path3119"
     inkscape:connector-curvature="0" />
  <path
     style="fill:#000000"
     d=""
     id="path3117"
     inkscape:connector-curvature="0" />
</svg>
